<svg width="700" height="700" viewBox="0 0 700 700" fill="none" xmlns="http://www.w3.org/2000/svg">
<path d="M113.75 253.75H132.309L166.321 517.37C166.884 521.733 170.602 524.999 175.001 524.999H380.981C390.903 536.124 405.098 542.487 420.004 542.499H433.707C443.316 542.491 452.793 540.253 461.391 535.964C473.903 529.745 488.606 529.745 501.118 535.964C509.716 540.253 519.192 542.491 528.802 542.499H542.505C556.423 542.483 569.771 536.948 579.614 527.108C589.454 517.264 594.989 503.917 595.005 489.999V437.499C594.989 423.581 589.454 410.233 579.614 400.39C569.77 390.55 556.423 385.015 542.505 384.999H528.802C519.192 385.007 509.716 387.245 501.118 391.534C488.606 397.753 473.903 397.753 461.391 391.534C456.403 389.085 451.102 387.319 445.641 386.284L462.696 253.744H481.255C483.575 253.744 485.802 252.822 487.442 251.182C489.083 249.541 490.005 247.314 490.005 244.994V209.994C490.005 207.674 489.083 205.447 487.442 203.807C485.802 202.166 483.575 201.244 481.255 201.244H446.255V174.994C446.255 172.674 445.333 170.447 443.692 168.807L402.504 127.623V100.443L415.77 89.8376L438.422 135.154L454.086 127.329L429.742 78.6575L440.566 69.9934H472.504C474.825 69.9934 477.051 69.0715 478.692 67.4309C480.332 65.7902 481.254 63.5637 481.254 61.2434V26.2433C481.254 23.923 480.332 21.6964 478.692 20.0558C477.051 18.4152 474.825 17.4933 472.504 17.4933H385.004C364.125 17.5207 344.109 25.8253 329.348 40.5873C314.587 55.3493 306.282 75.3643 306.254 96.2433C306.254 98.5636 307.176 100.79 308.817 102.431C310.457 104.071 312.684 104.993 315.004 104.993H332.504V127.622L308.816 151.31V151.306C307.176 152.947 306.254 155.174 306.254 157.494V201.244H288.754V131.244C288.742 130.162 288.523 129.088 288.113 128.084C287.953 127.744 287.773 127.416 287.574 127.095C287.363 126.638 287.117 126.197 286.836 125.775L253.754 84.4312V26.2432C253.754 23.9229 252.832 21.6963 251.191 20.0557C249.551 18.4151 247.324 17.4932 245.004 17.4932H192.504C187.672 17.4932 183.754 21.4112 183.754 26.2432V84.4312L150.672 125.775C150.391 126.197 150.145 126.638 149.934 127.095C149.734 127.416 149.555 127.744 149.395 128.084C148.984 129.088 148.766 130.162 148.754 131.244V201.244H113.754C108.922 201.244 105.004 205.162 105.004 209.994V244.994C105.004 247.314 105.926 249.541 107.566 251.181C109.207 252.822 111.434 253.744 113.754 253.744L113.75 253.75ZM542.5 525H528.797C521.907 524.992 515.109 523.387 508.945 520.309C491.5 511.641 471 511.641 453.554 520.309C447.39 523.387 440.593 524.992 433.702 525H419.999C410.718 525 401.815 521.313 395.249 514.75C388.687 508.184 384.999 499.281 384.999 490V476.523C394.597 485.195 407.065 489.996 419.999 490H433.702C443.312 489.992 452.788 487.754 461.386 483.465C473.898 477.246 488.601 477.246 501.113 483.465C509.711 487.754 519.187 489.992 528.797 490H542.5C555.434 489.996 567.902 485.195 577.5 476.523V490C577.5 499.281 573.813 508.184 567.25 514.75C560.684 521.313 551.781 525 542.5 525ZM508.945 407.19C515.109 404.112 521.906 402.506 528.797 402.499H542.5C555.004 402.499 566.559 409.171 572.812 419.999C579.062 430.827 579.062 444.171 572.812 454.999C566.558 465.827 555.003 472.499 542.5 472.499H528.797C521.907 472.491 515.109 470.885 508.945 467.807C491.5 459.139 471 459.139 453.554 467.807C447.39 470.885 440.593 472.491 433.702 472.499H419.999C407.495 472.499 395.94 465.827 389.687 454.999C383.437 444.171 383.437 430.827 389.687 419.999C395.941 409.171 407.496 402.499 419.999 402.499H433.702C440.593 402.506 447.39 404.112 453.554 407.19C471.003 415.85 491.495 415.85 508.945 407.19ZM428.109 384.999H420C406.082 385.015 392.734 390.55 382.891 400.39C373.051 410.234 367.516 423.581 367.5 437.499V489.999C367.515 495.964 368.551 501.882 370.562 507.499H182.692L149.95 253.749H192.501V411.249C192.501 420.53 196.189 429.433 202.751 435.999C209.318 442.562 218.22 446.249 227.501 446.249H315.001C324.282 446.249 333.185 442.562 339.751 435.999C346.314 429.433 350.001 420.53 350.001 411.249V337.905L372.856 349.331V349.335C379.516 352.62 387.215 353.116 394.243 350.706C401.271 348.296 407.048 343.183 410.29 336.499C413.677 329.78 414.255 321.987 411.892 314.843C409.56 307.695 404.45 301.784 397.716 298.445L350.001 274.593V253.749H445.052L428.109 384.999ZM314.999 218.749H332.499V279.999C332.48 283.331 334.359 286.386 337.339 287.874L389.839 314.124C392.398 315.386 394.339 317.632 395.218 320.347C396.128 323.261 395.812 326.417 394.343 329.097C393.132 331.526 391.003 333.374 388.429 334.233C385.855 335.089 383.042 334.89 380.616 333.671L345.093 315.909H345.089C342.382 314.585 339.183 314.749 336.625 316.343C334.066 317.936 332.507 320.733 332.5 323.749V411.249C332.5 415.889 330.656 420.343 327.375 423.624C324.093 426.905 319.64 428.749 315 428.749V349.999H297.5V428.749H280V349.999H262.5V428.749H245V349.999H227.5V428.749C222.859 428.749 218.406 426.905 215.125 423.624C211.843 420.343 210 415.889 210 411.249V218.749L314.999 218.749ZM472.499 236.249H349.999V218.749H472.499V236.249ZM463.749 52.4991H446.249V34.9991H463.749V52.4991ZM384.999 34.9991H428.749V57.05L390.679 87.4991H324.37C326.495 72.9291 333.788 59.608 344.917 49.968C356.05 40.3313 370.276 35.0191 384.999 34.9991ZM384.999 104.999V122.499H349.999V104.999H384.999ZM323.749 161.12L344.87 139.999H390.124L428.749 178.62V201.249H323.749V161.12ZM196.699 96.2491H240.801L261.801 122.499H175.699L196.699 96.2491ZM201.25 34.9991H236.25V78.7491H201.25V34.9991ZM166.25 139.999H271.25V201.249H166.25V139.999ZM122.5 218.749H192.5V236.249H122.5V218.749Z" fill="white"/>
<path d="M533.75 420H551.25V437.5H533.75V420Z" fill="white"/>
<path d="M446.25 420H463.75V437.5H446.25V420Z" fill="white"/>
<path d="M411.25 428.75H428.75V446.25H411.25V428.75Z" fill="white"/>
<path d="M498.75 428.75H516.25V446.25H498.75V428.75Z" fill="white"/>
</svg>
