<svg width="700" height="700" viewBox="0 0 700 700" fill="none" xmlns="http://www.w3.org/2000/svg">
<path d="M243.81 218.8L243.806 208.906C243.779 208.386 242.88 196.695 227.997 192.019V169.367H217.497V155.547H285.798L299.739 174.598L305.048 170.711L289.134 148.965L187.894 148.969V155.543H210.925V169.363H200.429V192.015C185.542 196.695 184.644 208.394 184.609 209.101V218.8C161.875 227.913 160.476 246.241 160.425 247.226V411.036H268.005L268.001 247.036C267.954 246.228 266.552 227.903 243.813 218.798L243.81 218.8ZM230.802 318.82H217.74V331.875H210.67V318.82H197.608L197.612 311.738H210.674V298.683H217.744V311.738H230.806L230.802 318.82Z" fill="white"/>
<path d="M302.39 185.03L299.48 190.589C297.257 194.835 286.168 216.39 286.168 223.96C286.168 232.909 293.449 240.187 302.391 240.187C311.332 240.187 318.618 232.906 318.618 223.96C318.618 216.39 307.528 194.827 305.306 190.589L302.39 185.03Z" fill="white"/>
<path d="M526.78 303.46L525.159 302.05L523.218 302.976C520.851 304.101 518.456 305.226 516.054 306.343C509.835 270.945 486.484 266.577 485.452 266.409L484.706 266.288L483.983 266.503C483.131 266.753 398.229 291.808 369.513 285.241C355.31 281.991 347.021 275.655 340.97 271.03C334.435 266.042 328.802 261.737 321.259 266.948C317.474 269.561 315.763 273.546 316.45 278.171C317.669 286.366 326.598 296.05 337.649 302.112C322.34 306.44 292.895 317.05 280.172 337.186C277.477 341.455 269.258 354.459 276.305 359.584C276.899 360.017 277.579 360.303 278.282 360.529C277.915 362.205 277.84 364.135 278.539 366.084C279.684 369.264 282.442 371.502 286.746 372.732C287.282 372.885 287.797 372.99 288.297 373.072C288.739 375.213 289.895 377.615 292.438 379.631C294.149 380.978 296.278 381.685 298.528 381.685C298.891 381.685 299.258 381.576 299.625 381.541C300.403 384.213 302.344 386.756 306.223 387.65C306.86 387.795 307.485 387.865 308.094 387.865C312.614 387.865 316.391 384.185 318.594 381.42C320.786 382.85 323.133 384.084 325.489 385.1C324.993 386.01 324.602 387.123 324.504 388.56C324.411 389.803 324.75 391.639 326.832 393.334C329.645 395.607 335.864 397.299 343.254 398.244C343.18 398.635 343.102 399.037 343.075 399.475C343.016 400.443 343.262 401.877 344.778 403.244C348.18 406.307 360.126 409.307 374.247 409.307C379.27 409.307 384.571 408.928 389.856 408.033C391.903 407.658 438.961 398.775 453.977 376.416C464.336 377.151 504.157 379.404 514.875 371.225C530.824 359.057 539.125 346.065 539.555 332.608C540.129 315.276 527.332 303.936 526.782 303.46L526.78 303.46ZM510.897 365.987C503.628 371.534 471.229 371.214 452.518 369.698L450.448 369.53L449.409 371.339C437.3 392.378 389.167 401.468 388.729 401.542C370.706 404.577 354.081 401.007 349.956 398.847C349.96 398.843 349.968 398.843 349.971 398.831C352.393 398.983 354.846 399.089 357.303 399.089C364.647 399.089 371.85 398.382 377.166 396.843C393.189 392.206 396.467 391.331 396.525 391.312L394.834 384.96C394.834 384.96 391.619 385.811 375.338 390.53C361.022 394.667 335.299 391.585 331.174 388.39C331.225 388.222 331.295 388.081 331.408 388.003C331.858 387.675 332.948 387.659 333.823 387.788C338.596 388.733 346.264 389.667 354.94 389.667C371.268 389.667 391.065 386.358 401.389 373.601L396.279 369.464C382.822 386.093 348.193 383.761 335.763 381.456C335.548 381.409 335.251 381.351 334.904 381.304C334.876 381.3 334.833 381.292 334.798 381.288C326.685 379.636 317.134 373.636 315.525 369.171C315.162 368.175 315.267 367.484 315.889 366.714C316.611 365.816 317.412 365.374 318.474 365.285C321.338 365.085 325.123 367.413 327.228 368.995C327.713 369.363 328.139 369.695 328.408 369.941L328.443 369.902C334.955 374.749 344.314 377.554 355.107 377.554C382.525 377.554 396.826 365.378 400.56 361.648L395.912 357C392.627 360.277 379.994 370.977 355.107 370.977C344.513 370.977 336.959 368.094 332.236 364.566C331.955 364.328 331.584 364.031 331.134 363.688C329.837 362.586 328.767 361.438 328.009 360.305C326.482 358.031 326.185 356.063 326.564 355.117C327.65 352.453 329.115 352.281 330.068 352.578C359.248 363.324 377.896 352.754 389.037 346.438C390.775 345.457 392.322 344.578 393.681 343.922C397.916 341.899 400.17 339.379 400.564 336.227C401.287 330.465 395.174 324.868 387.111 318.145C384.146 315.676 382.615 313.293 382.556 311.059C382.486 308.43 384.498 306.059 386.185 304.399C387.783 305.438 390.646 308.027 392.842 310.004C397.322 314.047 402.396 318.633 407.08 320.867C410.068 322.289 414.302 324.484 418.928 326.875C428.377 331.762 439.092 337.301 444.979 339.363C453.607 342.367 501.491 320.535 523.952 309.91C526.94 313.129 533.362 321.39 533.006 332.39C532.639 343.773 525.202 355.078 510.897 365.988V365.987Z" fill="white"/>
<path d="M247.12 516.2C247.12 523.423 241.265 529.278 234.042 529.278C226.816 529.278 220.96 523.423 220.96 516.2C220.96 508.978 226.816 503.122 234.042 503.122C241.265 503.122 247.12 508.978 247.12 516.2Z" fill="white"/>
<path d="M119.04 162.24L113.259 173.951L100.333 175.83L109.685 184.947L107.478 197.822L119.04 191.744L130.602 197.822L128.391 184.947L137.746 175.83L124.82 173.951L119.04 162.24Z" fill="white"/>
<path d="M238.4 47.8632L234.412 39.7773L230.42 47.8632L221.494 49.1562L227.951 55.4531L226.432 64.3398L234.412 60.1484L242.389 64.3398L240.869 55.4531L247.326 49.1562L238.4 47.8632Z" fill="white"/>
<path d="M577.38 408.04L585.369 412.231L583.838 403.349L590.295 397.056L581.377 395.755L577.38 387.669L573.392 395.755L564.47 397.056L570.931 403.349L569.4 412.231L577.38 408.04Z" fill="white"/>
<path d="M577.38 82.4531L572.118 98.6521H555.091L568.864 108.668L563.603 124.863L577.38 114.851L591.157 124.863L585.895 108.668L599.676 98.6521H582.641L577.38 82.4531Z" fill="white"/>
<path d="M544.05 43.8011C544.05 51.0277 538.195 56.8791 530.972 56.8791C523.75 56.8791 517.894 51.0275 517.894 43.8011C517.894 36.5784 523.75 30.7231 530.972 30.7231C538.195 30.7231 544.05 36.5786 544.05 43.8011Z" fill="white"/>
<path d="M596.77 285.75C596.77 291.504 592.106 296.172 586.352 296.172C580.598 296.172 575.934 291.504 575.934 285.75C575.934 279.996 580.598 275.332 586.352 275.332C592.106 275.332 596.77 279.996 596.77 285.75Z" fill="white"/>
<path d="M170.41 100.07C170.41 107.676 164.242 113.843 156.637 113.843C149.032 113.843 142.864 107.675 142.864 100.07C142.864 92.4649 149.032 86.2974 156.637 86.2974C164.242 86.2974 170.41 92.4654 170.41 100.07Z" fill="white"/>
<path d="M197.62 516.33C199.522 516.814 201.44 517.24 203.382 517.631L203.96 514.771C202.065 514.393 200.19 513.967 198.335 513.506L197.62 516.33Z" fill="white"/>
<path d="M109.42 418.89C109.987 422.699 110.749 426.527 111.682 430.265L114.51 429.554C113.596 425.91 112.846 422.175 112.299 418.464L109.42 418.89Z" fill="white"/>
<path d="M175.78 508.5C179.265 510.152 182.874 511.648 186.503 512.949L187.488 510.203C183.949 508.937 180.429 507.473 177.027 505.863L175.78 508.5Z" fill="white"/>
<path d="M111.07 401.64C111.07 399.734 111.117 397.82 111.211 395.894L108.301 395.753C108.199 397.718 108.152 399.687 108.152 401.64C108.152 403.554 108.199 405.46 108.293 407.355L111.203 407.214C111.113 405.363 111.07 403.5 111.07 401.64L111.07 401.64Z" fill="white"/>
<path d="M138.76 480.95C141.334 483.81 144.092 486.575 146.952 489.177L148.916 487.017C146.127 484.477 143.44 481.782 140.924 478.997L138.76 480.95Z" fill="white"/>
<path d="M115.06 441.37C116.353 444.98 117.845 448.585 119.501 452.085L122.138 450.835C120.521 447.421 119.064 443.906 117.802 440.382L115.06 441.37Z" fill="white"/>
<path d="M124.97 462.31C126.947 465.619 129.119 468.869 131.412 471.962L133.755 470.228C131.521 467.201 129.404 464.033 127.474 460.806L124.97 462.31Z" fill="white"/>
<path d="M155.9 496.56C159.002 498.869 162.248 501.045 165.541 503.025L167.045 500.521C163.83 498.591 160.67 496.466 157.643 494.216L155.9 496.56Z" fill="white"/>
<path d="M113.32 378.87L110.461 378.3C110.074 380.241 109.73 382.179 109.445 384.12L112.328 384.546C112.613 382.655 112.945 380.757 113.32 378.87L113.32 378.87Z" fill="white"/>
<path d="M589.61 449.06L592.517 449.33C592.696 447.369 592.81 445.392 592.849 443.396L589.931 443.337C589.892 445.263 589.778 447.169 589.61 449.06L589.61 449.06Z" fill="white"/>
<path d="M569.98 494.27L572.164 496.208C575.039 492.969 577.671 489.489 579.992 485.864L577.535 484.29C575.3 487.79 572.757 491.141 569.98 494.27V494.27Z" fill="white"/>
<path d="M550.69 510.07L552.159 512.59C555.886 510.414 559.468 507.922 562.811 505.18L560.964 502.922C557.737 505.566 554.284 507.973 550.691 510.07L550.69 510.07Z" fill="white"/>
<path d="M583.42 473.25L586.096 474.41C587.819 470.449 589.233 466.32 590.303 462.137L587.479 461.415C586.44 465.454 585.077 469.43 583.42 473.251V473.25Z" fill="white"/>
<path d="M527.43 519.08L528.036 521.932C532.254 521.033 536.43 519.783 540.466 518.221L539.411 515.502C535.532 517.018 531.497 518.217 527.431 519.08H527.43Z" fill="white"/>
<path d="M509.26 520.8L509.202 523.718C509.76 523.73 510.323 523.734 510.881 523.734C512.311 523.734 513.729 523.699 515.139 523.625L514.995 520.714C513.092 520.812 511.19 520.851 509.26 520.8H509.26Z" fill="white"/>
<path d="M584.89 212.2H587.808V223.868H584.89V212.2Z" fill="white"/>
<path d="M584.89 165.53H587.808V177.198H584.89V165.53Z" fill="white"/>
<path d="M584.89 235.53H587.808V247.198H584.89V235.53Z" fill="white"/>
<path d="M584.89 188.87H587.808V200.538H584.89V188.87Z" fill="white"/>
</svg>
