<svg width="48" height="48" viewBox="0 0 48 48" fill="none" xmlns="http://www.w3.org/2000/svg">
<g id="Iconly/Bold/Time Circle">
<g id="Time Circle">
<path id="Time Circle_2" fill-rule="evenodd" clip-rule="evenodd" d="M24 44.0002C12.96 44.0002 4 35.0602 4 24.0002C4 12.9602 12.96 4.00018 24 4.00018C35.06 4.00018 44 12.9602 44 24.0002C44 35.0602 35.06 44.0002 24 44.0002ZM30.38 31.4202C30.62 31.5602 30.88 31.6402 31.16 31.6402C31.66 31.6402 32.16 31.3802 32.44 30.9002C32.86 30.2002 32.64 29.2802 31.92 28.8402L24.8 24.6002V15.3602C24.8 14.5202 24.12 13.8602 23.3 13.8602C22.48 13.8602 21.8 14.5202 21.8 15.3602V25.4602C21.8 25.9802 22.08 26.4602 22.54 26.7402L30.38 31.4202Z" fill="#3498DB"/>
</g>
</g>
</svg>
