<svg width="49" height="48" viewBox="0 0 49 48" fill="none" xmlns="http://www.w3.org/2000/svg">
<g id="Iconly/Bold/3 User">
<g id="3 User">
<path id="3 Friends" fill-rule="evenodd" clip-rule="evenodd" d="M32.5646 16.4657C32.5646 21.1651 28.8183 24.9332 24.146 24.9332C19.4738 24.9332 15.7275 21.1651 15.7275 16.4657C15.7275 11.7645 19.4738 8 24.146 8C28.8183 8 32.5646 11.7645 32.5646 16.4657ZM24.146 40C17.2837 40 11.4242 38.9121 11.4242 34.5603C11.4242 30.2068 17.2461 29.0792 24.146 29.0792C31.0084 29.0792 36.8679 30.1672 36.8679 34.5207C36.8679 38.8724 31.046 40 24.146 40ZM36.1622 16.6184C36.1622 19.0141 35.4476 21.2458 34.1941 23.101C34.0651 23.2919 34.1797 23.5495 34.4072 23.5891C34.7206 23.6432 35.0447 23.6738 35.3742 23.6828C38.6603 23.7693 41.6098 21.642 42.4246 18.4395C43.6316 13.6825 40.0876 9.41179 35.5748 9.41179C35.0841 9.41179 34.6149 9.46403 34.1583 9.55769C34.0956 9.5721 34.0293 9.60092 33.9935 9.65676C33.9505 9.7252 33.9828 9.81706 34.0257 9.8765C35.3814 11.7876 36.1622 14.1184 36.1622 16.6184ZM41.6044 27.0251C43.8125 27.4592 45.2648 28.3454 45.8665 29.6333C46.3751 30.6906 46.3751 31.9172 45.8665 32.9727C44.9461 34.9703 41.9787 35.6115 40.8254 35.7772C40.5872 35.8133 40.3956 35.6061 40.4207 35.3666C41.0099 29.8314 36.3233 27.2071 35.111 26.6037C35.059 26.5766 35.0483 26.5352 35.0537 26.51C35.0572 26.492 35.0787 26.4632 35.1181 26.4578C37.7417 26.4091 40.5622 26.7694 41.6044 27.0251ZM13.1222 23.6826C13.4517 23.6736 13.7741 23.6448 14.0892 23.589C14.3167 23.5493 14.4313 23.2918 14.3023 23.1008C13.0488 21.2456 12.3342 19.0139 12.3342 16.6183C12.3342 14.1182 13.115 11.7874 14.4707 9.87632C14.5137 9.81688 14.5441 9.72502 14.5029 9.65658C14.4671 9.60254 14.399 9.57192 14.3382 9.55751C13.8797 9.46385 13.4105 9.41161 12.9198 9.41161C8.40701 9.41161 4.86301 13.6823 6.0718 18.4393C6.88662 21.6419 9.83608 23.7691 13.1222 23.6826ZM13.4419 26.5089C13.4472 26.5359 13.4365 26.5756 13.3863 26.6044C12.1722 27.2078 7.48564 29.8321 8.07482 35.3655C8.09989 35.6068 7.91006 35.8122 7.67189 35.778C6.51861 35.6122 3.55124 34.971 2.63077 32.9735C2.12039 31.9162 2.12039 30.6913 2.63077 29.634C3.23248 28.3461 4.68303 27.4599 6.8911 27.0241C7.93514 26.7701 10.7539 26.4098 13.3792 26.4585C13.4186 26.4639 13.4383 26.4927 13.4419 26.5089Z" fill="#3498DB"/>
</g>
</g>
</svg>
