<svg width="700" height="700" viewBox="0 0 700 700" fill="none" xmlns="http://www.w3.org/2000/svg">
<path d="M400.401 318.08C348.881 339.361 295.121 350.56 241.361 350.56C186.482 350.56 132.721 339.361 82.3209 318.08C78.9615 403.201 92.3989 470.4 126.001 480.48C179.763 496.16 241.361 493.921 241.361 493.921C241.361 493.921 302.963 496.159 356.721 480.48C389.201 470.398 402.643 403.199 400.401 318.08V318.08ZM296.241 468.16C259.28 476 222.319 476 185.361 468.16C136.08 458.082 113.681 413.281 127.123 383.039C129.361 378.559 133.842 377.437 138.322 379.68C202.162 414.399 278.322 414.399 342.162 379.68C346.642 377.441 351.123 378.559 353.361 383.039C367.923 413.281 345.521 458.078 296.24 468.16H296.241Z" fill="white"/>
<path d="M399.28 154.56C389.198 123.201 375.76 98.5605 361.198 79.5215C356.718 81.7598 352.238 84.002 347.757 87.3613C330.956 106.4 310.796 138.881 301.835 170.24C293.996 197.119 269.355 217.279 240.233 217.279C211.111 217.279 186.471 198.24 178.631 170.24C169.671 136.638 147.272 100.799 129.35 82.8813C118.151 101.92 108.069 125.44 101.35 155.682C90.1514 206.08 83.4284 258.722 81.1904 306.882L84.5498 308.003C133.831 329.284 186.47 339.362 239.11 339.362C292.872 339.362 344.39 329.284 393.67 308.003L409.35 301.285V318.086C410.471 369.606 407.112 454.726 372.389 483.846C381.35 481.607 389.19 480.486 398.151 477.127C450.803 462.561 447.444 300.167 399.284 154.557L399.28 154.56ZM273.84 302.4H207.762C202.161 302.4 197.684 297.92 197.684 292.322C197.684 286.721 202.165 282.244 207.762 282.244H273.84C279.442 282.244 283.918 286.725 283.918 292.322C283.922 297.924 279.442 302.4 273.84 302.4Z" fill="white"/>
<path d="M241.361 204.96C264.881 204.96 286.162 189.28 291.759 166.882C297.361 147.843 306.318 129.921 316.4 113.12C304.08 125.44 292.88 137.761 283.92 150.081V153.441C283.92 176.961 264.881 197.121 240.24 197.121C215.599 197.121 196.56 178.082 196.56 153.441C196.56 132.16 212.24 114.242 232.4 110.882C250.322 86.2405 276.08 58.2405 310.798 35.8425C278.318 17.9205 250.318 17.9205 245.837 17.9205H240.235H239.114C232.395 17.9205 176.395 16.7994 136.074 73.9205C153.996 91.8425 178.633 131.042 189.836 167.999C196.559 189.28 216.719 204.96 241.359 204.96L241.361 204.96Z" fill="white"/>
<path d="M224.561 420C215.6 428.961 215.6 443.52 224.561 452.48C233.521 461.441 248.081 461.441 257.041 452.48C266.001 443.519 266.001 428.96 257.041 420C248.08 411.039 233.521 411.039 224.561 420V420ZM254.803 427.84L233.522 449.121C232.4 450.242 229.041 450.242 227.92 449.121C226.799 448 226.799 444.64 227.92 443.519L249.201 422.238C250.322 421.117 253.681 421.117 254.803 422.238C255.924 424.48 255.924 426.719 254.803 427.84Z" fill="white"/>
<path d="M224.56 141.12C217.841 152.319 222.322 166.882 234.638 171.358C244.716 174.718 254.798 171.358 260.4 162.397C273.841 139.999 315.279 80.6353 382.48 57.1173C404.878 49.2775 430.64 52.6368 449.679 67.1953C468.718 81.7543 478.8 105.273 478.8 128.797V452.477H479.921H519.12H520.241V131.037C520.241 92.9593 503.44 54.8773 472.081 32.4783C440.722 10.0803 403.761 5.59933 367.921 17.9193C290.644 45.9193 242.481 113.118 224.561 141.119L224.56 141.12Z" fill="white"/>
<path d="M481.04 463.681C477.681 463.681 475.439 465.919 474.321 469.282L472.083 488.321H529.2L526.962 469.282C526.962 465.923 523.602 463.681 520.243 463.681H481.04Z" fill="white"/>
<path d="M618.801 543.201L615.441 530.88C610.961 512.958 595.281 499.521 576.242 499.521H425.042C406.003 499.521 390.323 512.962 385.843 530.88L382.484 543.201C381.363 546.56 383.605 548.802 385.843 548.802H614.323C617.683 548.802 619.925 546.56 618.804 543.201H618.801ZM560.559 517.443C554.957 517.443 551.598 515.204 551.598 512.962C551.598 510.724 556.078 508.481 560.559 508.481C565.039 508.481 569.52 510.72 569.52 512.962C569.52 515.2 566.16 517.443 560.559 517.443Z" fill="white"/>
</svg>
