<svg width="700" height="700" viewBox="0 0 700 700" fill="none" xmlns="http://www.w3.org/2000/svg">
<path d="M516.25 411.25H341.25V393.75H516.25V411.25ZM428.75 35C431.07 35 433.297 35.9219 434.938 37.5625C436.578 39.2031 437.5 41.4297 437.5 43.75V341.25H420V43.75C420 38.918 423.918 35 428.75 35ZM420 358.75H437.5V376.25H420V358.75ZM262.5 245V393.75H175V376.25H245V358.75H175V245H262.5ZM139.39 525L123.144 297.5H139.996V280H104.996V262.5H157.496V402.5C157.496 404.82 158.418 407.047 160.059 408.688C161.699 410.328 163.926 411.25 166.246 411.25H271.246C273.566 411.25 275.793 410.328 277.434 408.688C279.074 407.047 279.996 404.82 279.996 402.5V262.5H367.496V280H332.496V297.5H349.348L343.723 376.25H332.496C327.664 376.25 323.746 380.168 323.746 385V490C323.746 500.855 327.133 511.441 333.434 520.285L333.102 525L139.39 525ZM568.75 525H376.25C366.969 525 358.066 521.312 351.5 514.75C344.938 508.184 341.25 499.281 341.25 490V428.75H358.75V463.75H376.25V428.75H393.75V446.25H411.25V428.75H446.25V481.25H463.75V428.75H481.25V446.25H498.75V428.75H516.25V458.875C516.258 467.129 519.543 475.039 525.375 480.875C531.211 486.707 539.121 489.992 547.375 490H568.75C575.004 490 580.781 493.336 583.906 498.75C587.031 504.164 587.031 510.836 583.906 516.25C580.781 521.664 575.004 525 568.75 525Z" fill="white"/>
<path d="M105 113.75H122.5V96.25H140V78.75H122.5V61.25H105V78.75H87.5V96.25H105V113.75Z" fill="white"/>
<path d="M288.75 175H306.25V157.5H323.75V140H306.25V122.5H288.75V140H271.25V157.5H288.75V175Z" fill="white"/>
<path d="M595 271.25V253.75H577.5V271.25H560V288.75H577.5V306.25H595V288.75H612.5V271.25H595Z" fill="white"/>
<path d="M533.75 70H551.25V52.5H568.75V35H551.25V17.5H533.75V35H516.25V52.5H533.75V70Z" fill="white"/>
<path d="M297.5 280H315V297.5H297.5V280Z" fill="white"/>
<path d="M358.75 481.25H376.25V498.75H358.75V481.25Z" fill="white"/>
</svg>
