<svg width="48" height="48" viewBox="0 0 48 48" fill="none" xmlns="http://www.w3.org/2000/svg">
<g id="Iconly/Bold/Location">
<g id="Location">
<path id="Location_2" fill-rule="evenodd" clip-rule="evenodd" d="M7 20.6355C7 11.4358 14.6878 4 23.9869 4C33.3122 4 41 11.4358 41 20.6355C41 25.2714 39.314 29.5753 36.539 33.2232C33.4776 37.247 29.7043 40.7529 25.4571 43.5049C24.485 44.1408 23.6077 44.1888 22.5409 43.5049C18.2695 40.7529 14.4962 37.247 11.461 33.2232C8.68397 29.5753 7 25.2714 7 20.6355ZM18.3885 21.1535C18.3885 24.2354 20.9033 26.6593 23.9869 26.6593C27.0725 26.6593 29.6115 24.2354 29.6115 21.1535C29.6115 18.0956 27.0725 15.5537 23.9869 15.5537C20.9033 15.5537 18.3885 18.0956 18.3885 21.1535Z" fill="#3498DB"/>
</g>
</g>
</svg>
