<svg width="49" height="48" viewBox="0 0 49 48" fill="none" xmlns="http://www.w3.org/2000/svg">
<g id="Iconly/Bold/Shield Done">
<g id="Shield Done">
<path id="Shield Done_2" fill-rule="evenodd" clip-rule="evenodd" d="M23.7042 43.8273C23.9257 43.943 24.1733 44.0019 24.421 43.9999C24.6686 43.9979 24.9143 43.9371 25.1378 43.8195L32.2735 40.0049C34.2971 38.9263 35.8817 37.7201 37.118 36.3159C39.8059 33.2564 41.2738 29.3516 41.2476 25.3253L41.163 12.044C41.155 10.5142 40.1502 9.14922 38.6643 8.65303L25.3895 4.19913C24.5901 3.92848 23.7142 3.93437 22.929 4.21286L9.70448 8.82562C8.22658 9.34142 7.23998 10.7162 7.24803 12.2479L7.3326 25.5194C7.35878 29.5517 8.87694 33.4388 11.6092 36.4669C12.8576 37.8515 14.4563 39.04 16.502 40.101L23.7042 43.8273ZM21.8152 28.2179C22.1132 28.5042 22.4997 28.6454 22.8863 28.6415C23.2729 28.6395 23.6575 28.4944 23.9515 28.2041L31.7496 20.5162C32.3356 19.9376 32.3295 19.008 31.7376 18.4373C31.1436 17.8666 30.1872 17.8705 29.6013 18.4491L22.8642 25.0897L20.1057 22.4382C19.5117 21.8675 18.5574 21.8733 17.9694 22.4519C17.3835 23.0305 17.3895 23.9601 17.9835 24.5308L21.8152 28.2179Z" fill="#3498DB"/>
</g>
</g>
</svg>
